<?xml version="1.0" encoding="utf-8"?>
<!-- Generator: Adobe Illustrator 26.0.2, SVG Export Plug-In . SVG Version: 6.00 Build 0)  -->
<svg version="1.1" id="图层_1" xmlns="http://www.w3.org/2000/svg" xmlns:xlink="http://www.w3.org/1999/xlink" x="0px" y="0px"
	 viewBox="0 0 512 512" style="enable-background:new 0 0 512 512;" xml:space="preserve">
<style type="text/css">
	.st0{fill:#A4C2DB;}
	.st1{fill:#73B1C9;}
	.st2{fill:none;}
</style>
<path class="st0" d="M36,69.2c12.5-7.5,55.3-31.2,116.1-29c51,1.9,86.5,20.9,99.9,29c0,107,0,213.9,0,320.8
	c-23.2-7.6-63.5-17.9-114.6-17C93.1,373.8,58,382.8,36,390C36,283.1,36,176.1,36,69.2z"/>
<path class="st1" d="M260,69.2c12.5-7.5,55.3-31.2,116.1-29c51,1.9,86.5,20.9,99.9,29c0,106.9,0,213.9,0,320.8
	c-23.2-7.6-63.5-17.9-114.6-17c-44.3,0.8-79.4,9.8-101.4,17C260,283.1,260,176.1,260,69.2z"/>
<rect y="418.3" class="st2" width="512" height="80.2"/>
</svg>
